<svg viewBox="0 0 369.655 59.937" class="css-8aabad">
  <g xmlns="http://www.w3.org/2000/svg" fill="#111">
    <path d="M19.218 90.87c-.95.95-.96 2.49-.01 3.43.94.94 2.48.931 3.43-.02 0 0 18.46-14.98 30.98-26.271l-8.12-8.12c-11.3 12.521-26.28 30.981-26.28 30.981zm60.349-51.81-5.12-5.12s-6.779 4.79-14.79 11.85l8.051 8.05c7.069-8 11.859-14.78 11.859-14.78zm1.818-1.63s5.964.787 12.077-6.902C98.372 24.352 91.737 15 91.737 15s-2.72 7.377-6.039 7.764c-3.865.448-6.27 1.092-8.146 2.969-2.422 2.422-1.345 6.521-1.345 6.521l5.178 5.176zm6.533 42.28-1.141-1.14-8.47 8.479 6.78 6.78c.97.8 2.08 1.17 3.189 1.17 1.57 0 3.15-.73 4.44-2.01 2.189-2.2 2.77-5.28.84-7.63l-5.638-5.649zM83.958 75.75h-.011l-18.92-18.93-8.349-8.35-21.32-21.32-1.13-1.13-8.48 8.48 1.13 1.13 21.31 21.31 8.37 8.37 18.92 18.92 1.129 1.13 8.481-8.48zM20.288 25.26l3.02 6.03.75 1.51 8.47-8.48-1.51-.75-6.02-3.01-2.64-1.32-3.39 3.39zM18.798 17.14 14.728 15l2.14 4.07 1.36 2.6 3.18-3.17z" transform="translate(-11.034 -11.238) scale(.74922)"/>
  </g>
  <path d="M87.272 23.29h7.83V20.18H81.178v1.015h12.809v1.18H80V19h16.28v5.47h-7.828V39.8h-1.18V23.29zm-2.194 1.18H80v-1.18h6.257v17.46h3.276V25.487h1.179v16.477h-5.634V24.47zm18.315-5.438h5.7V26.6h-1.212v-6.355h-3.309v20.507h3.309v-6.323h1.212v7.535h-5.7v-22.93zm2.26 2.162h1.18v6.42h9.99v-8.582h1.147v9.73h-12.317v-7.568zm15.822-.95h-1.113v8.616h-1.18v-9.828h3.44v22.93h-1.147V20.245zm-4.651 13.136h-9.991v6.584h-1.212v-7.796h12.35v8.583h1.211v-9.664h-13.561v-1.146h14.74v12.022h-3.537V33.38zm12.714-14.282h1.18v21.685h12.545v-3.275h-9.237v-3.145h1.179v1.965h9.238v5.635h-14.905V19.098zm2.227 0h12.514v5.601h-7.862V23.52h6.682v-3.243h-10.154v9.467h7.632v1.18h-8.812V19.097zm0 12.874h9.959v-3.276h-7.698V21.26h7.927v1.18h-6.748v5.076h7.698v5.635h-9.958v5.438h9.172v1.179h-10.352v-7.796zM155.748 19l9.5 17.852 3.963-7.337 1.9 12.448h1.18l-2.457-16.117-4.586 8.484L157.09 19h-1.343zm10.45 8.811-1.54 2.85.688 1.245 2.162-4.095 2.883-5.372.098-.23 1.08-1.997h.787l.098.786 2.457 15.985.557 3.768h-1.08l-2.49-16.215-.295-1.966-.918 1.736 2.621 17.165h-.033l.099.492h3.472L173.372 19h-2.523zm-1.999 9.336-9.401-17.722-.197-.327-3.472 22.865h5.733l1.048-6.781-.688-1.278-.262-.491-1.114 7.338h-3.341l2.752-17.952 10.023 18.869 3.571-6.781-.262-1.736-.033-.23-3.276 6.224zm-7.763-7.272 6.42 12.088h1.343l-8.385-15.757-2.13 13.693h1.18zm26.832-10.777h1.18v21.685h12.546v-3.275h-9.238v-3.145h1.18v1.965h9.237v5.635h-14.905V19.098zm2.228 0h12.513v5.601h-7.861V23.52h6.682v-3.243h-10.155v9.467h7.633v1.18h-8.812V19.097zm0 12.874h9.958v-3.276h-7.698V21.26h7.928v1.18h-6.748v5.076h7.698v5.635h-9.959v5.438h9.172v1.179h-10.351v-7.796zm45.476 8.844h-.59l-.262-.884-4.783-15.364-1.31-4.39h1.016l5.11 16.642.524 1.769h.196l.623-1.54-.623-1.9-4.946-16.117h-3.505l7.076 22.93h2.26l2.98-7.108.623-1.507.852-2.129-.622-1.474-.885 2.097-.622 1.506zm-3.997-21.784 5.078 16.707 3.603-8.616 6.486 14.872h1.278l-7.764-17.853-3.472 7.993-3.964-13.103h-1.245zm16.641 10.122 2.752-8.975h3.341l-.295.95-3.341 10.94-1.9 6.192-8.058-18.606h-.852l-3.472 8.058.524 1.736 3.374-7.796 1.048 2.391 7.338 17.001.295.656 6.911-22.669h-5.798l-2.555 8.484zm.197 2.85-.688-1.638-4.652-10.711h-1.277l6.813 15.723 4.39-14.315h-1.245zm14.417-12.972h3.44v20.736h-1.18V20.212h-1.08v20.571h3.308v-21.75h1.18v22.93h-5.668v-22.93zm26.964 1.18L274.94 39.735h1.408l10.777-20.703H272.91v1.18h12.284zm-7.731 19.523h8.124v-1.18h-6.159l10.22-19.523h-1.342zm9.238-2.162v3.21h-13.464l10.286-19.621H272.91v3.406h6.355l.59-1.179h-5.766v-1.048h7.469l-10.253 19.622h16.575v-5.57h-6.093l-.622 1.18h5.536zm12.78 2.359h1.44l1.147-2.752 8.55.033 2.096 4.75 6.028-.033-10.319-22.898h-2.096L296.073 41.93h6.388l1.114-2.62h6.519l-.492-1.115h-6.748l-1.048 2.588h-3.898l9.074-20.637h.786l9.106 20.637h-3.472l-2.096-4.684H301.15zm3.897-5.766 3.997-9.532 6.715 15.265h1.343l-8.058-17.951-5.897 13.234h9.5l-3.603-7.96-2.49 5.994h1.278l1.212-2.98 1.801 3.93h-5.798zm37.938 6.617h-3.767l-4.521-8.418-3.046.032v8.386h-3.309v-21.75h-1.18v22.93h5.7v-8.42h1.147l4.488 8.42h6.453l-4.52-8.452-1.081.426zm-7.797-20.571c4.75 0 7.436 2.129 7.436 6.027 0 3.538-2.129 5.7-5.83 6.093l-.885.098 4.095 7.567h1.343l-3.57-6.65c3.93-.688 6.027-3.079 6.027-7.108 0-1.343-.295-2.555-.852-3.636-1.31-2.326-3.996-3.57-7.764-3.57h-5.798v20.931h1.18V20.212h4.618zm-.262 11.137c4.488 0 6.617-1.54 6.617-4.946 0-3.243-2.227-5.078-5.798-5.078h-4.127v3.44h3.767c1.736 0 2.62.491 2.62 1.474 0 1.146-1.08 1.703-3.275 1.703h-1.9v-2.03h-1.212v3.21h3.112c2.915 0 4.455-1.016 4.455-2.883 0-.59-.131-1.048-.426-1.409-.557-.819-1.67-1.212-3.374-1.212h-2.555v-1.113h2.915c2.916 0 4.62 1.408 4.62 3.898 0 2.588-1.737 3.8-5.439 3.8h-3.275v1.146h3.275zm33.188-9.008c-1.966-2.064-4.488-3.276-6.945-3.276h-9.598v1.18l9.598.032c1.54 0 3.014.491 4.423 1.441 2.751 1.933 4.586 5.405 4.586 8.78 0 1.768-.393 3.406-1.212 4.946-1.638 3.046-4.947 5.274-7.797 5.274h-8.418V22.34l8.156.033c1.18 0 2.326.36 3.407 1.113 2.195 1.474 3.636 4.292 3.636 7.01 0 1.999-.852 4.062-2.391 5.668-1.442 1.44-3.178 2.358-4.619 2.358h-3.734l.032-12.94h-1.146l-.033 13.53v.59h4.881c1.802 0 3.898-1.016 5.503-2.72 1.736-1.867 2.686-4.16 2.686-6.486 0-2.358-.917-4.717-2.587-6.551-1.802-1.802-3.768-2.784-5.635-2.784h-9.336V41.93h9.598c2.359 0 4.914-1.212 6.847-3.276 2.129-2.195 3.308-5.11 3.308-8.157s-1.114-5.929-3.21-8.156zm-7.305 15.134c.917 0 1.867-.36 2.883-1.048 1.998-1.409 3.275-3.768 3.275-5.962 0-1.18-.294-2.326-.851-3.44-1.147-2.195-3.21-3.57-5.307-3.57l-7.043.032.033 16.28h1.18V24.635l5.83-.033c.753 0 1.54.295 2.358.852 1.671 1.179 2.621 3.013 2.621 5.012 0 1.343-.622 2.85-1.638 3.996s-2.26 1.835-3.341 1.835h-2.326v1.179h2.326z" fill="#111"/>
</svg>
